<svg width="38" height="38" viewBox="0 0 38 38" fill="none" xmlns="http://www.w3.org/2000/svg">
<path d="M15.0417 4.75C17.7712 4.75 20.3889 5.8343 22.319 7.76436C24.249 9.69442 25.3333 12.3121 25.3333 15.0417C25.3333 17.5908 24.3992 19.9342 22.8633 21.7392L23.2908 22.1667H24.5417L32.4583 30.0833L30.0833 32.4583L22.1667 24.5417V23.2908L21.7392 22.8633C19.8717 24.4574 17.497 25.3332 15.0417 25.3333C12.3121 25.3333 9.69442 24.249 7.76436 22.319C5.8343 20.3889 4.75 17.7712 4.75 15.0417C4.75 12.3121 5.8343 9.69442 7.76436 7.76436C9.69442 5.8343 12.3121 4.75 15.0417 4.75ZM15.0417 7.91667C11.0833 7.91667 7.91667 11.0833 7.91667 15.0417C7.91667 19 11.0833 22.1667 15.0417 22.1667C19 22.1667 22.1667 19 22.1667 15.0417C22.1667 11.0833 19 7.91667 15.0417 7.91667Z" fill="white"/>
</svg>
